<?xml version="1.0" standalone="no"?>
<!DOCTYPE svg PUBLIC "-//W3C//DTD SVG 20010904//EN"
 "http://www.w3.org/TR/2001/REC-SVG-20010904/DTD/svg10.dtd">
<svg version="1.0" xmlns="http://www.w3.org/2000/svg"
 width="512.000000pt" height="512.000000pt" viewBox="0 0 512.000000 512.000000"
 preserveAspectRatio="xMidYMid meet">
<metadata>
Created by potrace 1.11, written by Peter Selinger 2001-2013
</metadata>
<g transform="translate(0.000000,512.000000) scale(0.100000,-0.100000)"
fill="#000000" stroke="none">
<path d="M3345 4429 c-24 -15 -36 -30 -76 -92 -22 -37 -40 -53 -72 -65 -154
-58 -367 -200 -467 -309 -60 -66 -128 -167 -155 -233 -25 -60 -31 -66 -39 -35
-34 134 -180 312 -354 428 -323 216 -734 294 -1076 202 -252 -67 -483 -251
-628 -498 -76 -131 -145 -312 -164 -431 -3 -21 -8 -48 -10 -60 -6 -27 -5 -223
0 -256 3 -14 7 -44 10 -67 15 -116 75 -291 149 -436 66 -130 205 -338 308
-462 128 -153 392 -414 574 -566 22 -19 42 -36 45 -39 4 -5 179 -143 205 -162
6 -4 33 -25 60 -46 28 -20 60 -44 72 -52 12 -8 67 -48 123 -88 55 -41 203
-141 328 -224 125 -82 259 -171 298 -197 l70 -48 25 19 c13 10 31 25 40 32 8
7 123 85 255 173 305 204 391 263 572 397 92 68 337 260 352 276 3 3 41 36 85
75 215 187 451 439 576 614 90 127 105 151 172 271 36 65 103 229 123 302 10
35 25 77 34 94 13 26 16 61 14 215 -1 101 -5 195 -8 209 -4 14 -9 40 -12 59
-10 60 -63 210 -105 299 -82 173 -213 338 -349 440 -175 130 -420 204 -657
198 -88 -2 -94 -1 -145 31 -60 37 -139 52 -173 32z"/>
</g>
</svg>
