<?xml version="1.0" standalone="no"?>
<!DOCTYPE svg PUBLIC "-//W3C//DTD SVG 20010904//EN"
 "http://www.w3.org/TR/2001/REC-SVG-20010904/DTD/svg10.dtd">
<svg version="1.0" xmlns="http://www.w3.org/2000/svg"
 width="500.000000pt" height="500.000000pt" viewBox="0 0 500.000000 500.000000"
 preserveAspectRatio="xMidYMid meet">
<metadata>
Created by potrace 1.11, written by Peter Selinger 2001-2013
</metadata>
<g transform="translate(0.000000,500.000000) scale(0.100000,-0.100000)"
fill="#000000" stroke="none">
<path d="M3262 4367 c-12 -7 -41 -41 -65 -76 -40 -62 -46 -66 -138 -106 -132
-57 -282 -158 -378 -253 -77 -76 -158 -188 -182 -249 -33 -85 -28 -85 -58 -6
-119 305 -559 582 -986 620 -438 39 -799 -129 -1026 -481 -75 -114 -168 -331
-184 -428 -3 -18 -8 -40 -10 -48 -10 -39 -17 -123 -16 -206 2 -361 172 -727
536 -1154 64 -75 326 -331 435 -426 254 -221 545 -438 885 -662 72 -47 189
-124 261 -172 l131 -88 44 35 c24 19 166 116 314 216 149 99 306 206 350 238
44 32 107 77 140 101 103 73 384 296 480 380 92 81 367 356 434 436 214 250
359 502 436 752 13 41 29 87 37 101 20 38 16 367 -6 467 -90 410 -346 741
-674 871 -145 57 -225 72 -407 75 -122 3 -132 4 -169 29 -64 45 -140 58 -184
34z"/>
</g>
</svg>
